/* XPM */
static char *_db63a10e80c495aa693e755f317f2f6etqKoSVroQflVdev[] = {
/* columns rows colors chars-per-pixel */
"100 100 64 1 ",
"  c #4F5355",
". c #535556",
"X c #555759",
"o c #57585B",
"O c #5A5B5D",
"+ c #5D5E60",
"@ c #5F6062",
"# c #626365",
"$ c #656669",
"% c #67686A",
"& c #6A6B6E",
"* c #6D6F71",
"= c #6F7173",
"- c #727376",
"; c #747679",
": c #76787B",
"> c #7A7B7E",
", c #7D7F81",
"< c #7F8083",
"1 c #818386",
"2 c #848689",
"3 c #86888B",
"4 c #898B8E",
"5 c #8C8E91",
"6 c #8F9193",
"7 c #919396",
"8 c #949699",
"9 c #96999B",
"0 c #999B9E",
"q c #9C9EA1",
"w c #9EA0A2",
"e c #9FA1A4",
"r c #A0A1A3",
"t c #A0A1A4",
"y c #A2A4A7",
"u c #A3A5A8",
"i c #A4A6A8",
"p c #A6A7AA",
"a c #A6A8AB",
"s c #A7AAAC",
"d c #A8A9AC",
"f c #A9ABAD",
"g c #A9ACAE",
"h c #AAACAE",
"j c #ACAEAF",
"k c #ABADB0",
"l c #AEAFB1",
"z c #AFB1B3",
"x c #AFB1B4",
"c c #AFB2B4",
"v c #B0B1B3",
"b c #B0B0B4",
"n c #B2B4B6",
"m c #B2B4B7",
"M c #B3B5B7",
"N c #B4B6B7",
"B c #B4B6B9",
"V c #B5B8B9",
"C c #B6B9BB",
"Z c #B9BBBD",
"A c #BCBEC1",
"S c #BEC0C2",
"D c #C1C2C5",
"F c #C4C6C8",
/* pixels */
"oooo#*-@ooooOO++++++oooo#-,3>&#++OoO#$%$$##$$@@#$$$%$+OO#&-&$$&>;#+OO#->-&$@+oo++oooo++oooooO#OoOooo",
"o.-445754456656006563><378tltqp055808788777887777908765678887780e965678888096346635787831335764331+o",
"o&367q08888890sly000qqq889jbphby80lbq90977pzpqq00lbyq0098890008pzlt98887qyq9988890flh09q99qpp07756:.",
"o3658lt900908qlhzt90q08wq9tp0fMy9ebzq99qhpbl9798tlhhqwytq988889qfllq9yyft880wyaq90llly88580zMy97873o",
"X>650lpqajz08ublx0qy00rflq899pba00flaqwethlf0af9ahfa0q090tq9wywulhhqpzVM080wtbzh0qlhhlq8099fzy90072o",
"o-65qfptfbbq9pfphfhz0tlyyqwqqflw0yzvy9qq0pzs0hkwkblze6qe00wuxffxlflqfNljqeq0wMla0qljlftt97qflq9908>.",
"o-75wfuplbfy8ytllffe0flz0qkf9fxyqsbMy09089yywzltzBfhaq70auwflbMafMq0Mlhlp870tbMf85pbzqlz47lp0qpp07&X",
"o*86tpqalffa8plaffh6yMbk93yMsxbtqaMhh090flffpblpMbxbt0w88wkbbbzlzltpllzM07q0pzNf580zppMf5wls7ahf05$o",
"o=78pt8fjphlq0pazuqqfllyqqfbflzyepffltqpbxxxsbsfBlBbf90q0plbblzNbfqqzbMh8qq0hlVt8q0flhzp0yzp8afu97#o",
"o-77fq0apfhl09qat09tbbxt0ufpybBp0tfzbtqlxzblfbylbBMbfqq8sMffbxzzzbttBbMlqqtalhVp0q7tvbzf9hlp8ahu97$o",
"o;68ff0aafffq0090wqsbzf0qkbwpVbe0qfbzuqBMlzfMk9MMVzMkqeylhbfazbzzzahzllb000zbflpq96ythh0qllp8hlp07$o",
"X,59pptffffhe00q09qtlzsqqzMkwbzyq0bbbyybbBlzbyqbBbxBzeqpBzhbzflzzbhlkslh080fzywt070w6w00thlp9zfs05$o",
"$440fw9bhfffq090640wlvfsfbbbtpbu0qbblfsMbfbVbqybMxbBheqqfZBzbbhhzxfbflbs08y99qsl00q7wq09qlltqlyh05%o",
";759f08hbffkq8qf860q0exBblBleflp8qkzBlhMjlVbMweMBMbVfqtw8ehVMbbzflMMzbbyy9808ezbtw60y9060lzpapyl07%o",
"X=57879fhblaq9hlq0800qblkBbzwhBt8wlZMlzbfBMbzqqMzMBBzyuyt9qMBMMbMhbBzbBpey9w0pbbp69tq006qMzftyff87*X",
"o.=9680hlhlf0wzs00700ellBMlbthMqqyzMzbbfbBbMzt9bVlbVftytautlbMBMxbbBbMztttpt9tBlq9qt0009plztqhfh89;X",
"o+<578wlhxkp0pzp0q8qquzBbllbxquqyypMMbfbMbhMztelBVlBlet0qalBbMbMBbxBMMa9tqqwyfflt0wq0qw9qlh8flaby8>.",
"o>75778flflf0hly0qqy0pBMlzbVx80yh0kMMhbBMhzBxtafMMBNhsutqtfZVBMbBBbMBbq9eqqttkpft0ytta78qba0tfahz9*X",
"o1798tptlzapylly09ee0fBlzlbbzq0hqqzMzlbBMlBMbypzBVVzauspuqlBbMBMMMMzBh90tettwhbpqqlVy7700Mh068psl8oo",
".o>80hfftzztylly0ttq0hbzbflbbswq0yMzllzblVVMMupbkBBMquuasukBBMMvBblMlu9qtpfyqkBf7hBlt4q9qMh840yaf7Oo",
".X*98hzhyffepllytw9q0fbzbkabBz07tpbhMlVhbMVBBupBzMVVq0pypfbBBZxlMlNMfeeewlZaelbl0pbau9e7tau498tspw$o",
"oX*9waahppv0ylkaa89q0sbzxzazVk00ypjMblBVBBxxZlaBblZVfwauyyMVBMbZVwBbattpylvayabbw0fffpqqy07705yfpa>X",
"Oo=8tfwpflf8pkllq89q0sbzxzlbbkquttMBlBVBVZBBBlhZVbMBhttsspbBVbBVMwawtylBazVsqsBft0yfxhwet96078yhpa,o",
"O.;9yhtyzl07akBhq89wqpbxbbhMbltyqpBblBBVVBVZZkuVZVBVlatpppbMfBVBaupp9yMVfbhyqqtew8hllbwtq587w9yha7&@",
"O.-0pfttbp7qaBMsq89eypbxbbkzaMyeazBllBBMVZZBZBpMBZAZkuppfpllzzVzsuufehZBplfp90eueqsblVyy5808eqyhf2%#",
"Oo-0psafzq6hlMkfq80qtlbbvzlblMpeuBblxBBBBVxVZVkVVMBZbustsshBZMzzstuyufVZlBBf0twswqtlbBl789009qpffw-@",
"Oo:0pfvwaqwzzhzhq70q0xVBhfMZMbattZBzzBBBBZxMZZlBZZVBbfkutaxVVVzVbkutpzhVsMVsttapewqhBBh078q098hfff5o",
"Oo;qphz08epbfllh07qq0lABNhZBbMstuBSZfBBBBVbzZZzVZZZZMyszlpbZVVVVZZBfkZbBhMBueefq0wqhblb87t0q69zaff7X",
"oo<9ptft8yzzfbbf07wqqhAVMZMlBMstsbBAhMBBBVMlBZMMAAZAZkupklBzbVZVVVZbxZBbzVBuwpsq9eqhMbh6ew0w90lhaf3 ",
"o&77pywa0phaffVh88ewwlVZZZzhbBftfbMZlVZZBZVMMVVxVVZZAzksppVMBBBVVVVpbVBMhMbttfee0qqlZMq0te07yyhlpa;.",
"*566wfwfu0fahabz08qwezMAABhxlMutlVVBBZZZZBVVMZZMVVVZZzfkkhMkZZMBMBbaBVBBzMhtpaeeq9ebBltwtt88Mzflfq%o",
"%6330fyfa9hphhllp80wyMVZAVlblluylbZVVVZVAVVVbVVVZZZMZbpfakVkMBZZBMlzZVVBzbltaqy0e9eBzbteet6pzlpbf5$o",
"+5338afhp8afhlbhl09wpBMMZZblBhaphMBZBMZZVAVVVVVBBVZVZBasalBfZzMZAMksVbZVbblet9uqt8eBblwet08lafwq05$o",
"&6746ufht7yzlazNbpyqhzzbMABMBlpplBBBZzZVZMSZVVVVVMbZbZlspbMpBMBBBMBklbBVbBhte9uwq9aMbhqel0wltfu793+O",
"+1886thhp8qkzffbZaqpkMllhZZBbzstbVBBMzZVVAZAABVZBZbVVzlspBbtzVVVlMbfNVMBlZfyt9ttqwbMbf0ylppyyla782oO",
"oO308pfhu90szhhlbZtaVMvahBZVlbptBBBBBaVSVVZZSABZZVVbABhhaVftslZVlVb0BVbbbBatt9tf0uzzbpqqflytzhp885#o",
"o&58qaflq00fzkhbzbhtfzp9kBBZhBtuZBBBBukAAZbZZADZVAZMbAzfkZtppzbbZZawZzMzBMpyu9ul0pzlbp00zltlbla878>X",
"o<75yfff009fzlflbbpapps8uBBxhVefZVbBVuhZZZZVVVZDZMSZxMVfBZytfxlVZZzsMzxMVbuusqtkqeblbt8wblybxlf978>X",
"o:75ylaw909alzllxMpwffyt9VVlzBukkBVZVuhZBbSABVVZDZVSVlVfVZpqfllZVVMfBMxVBbfuswwpwwMhV09uMplblff067&o",
"o$76wby8009allMbzMueeaafubBhBMpahBZVVskZZbMZVZVVZAAASBblxAsqtkxBZZMyhAABBbsusy0yetbVx8qplpMbfhh076+O",
"o#56wby5009azzlbMBpettwakZbhVMsuhbVVVkBZZBMMlAZZVMZSSSMllZkyqhbBVZVwyVZZZztuuy0ttpBVy9wspbbhhll0q1OO",
"o#87qap5909azbbbMBpwpbqqsBZbBMpuhMVVVlMVZZVMuVZAVBMZASAlfBbsqpxZVZZwtVBBVVfptu0eeuZz0qqalZjalbfw0,OO",
"o%8977p7809szlbBVZsqllw0uMMAVMppfZZVVzZMVZABeMZZZZBVVAFVqbbz9elAVZVzabVVBBzsau9wwhZz9eqfZbhpblh083OO",
"o>3794q0709flzbjMVpaZtwepBhVAVpuhVZAZbZbVVZBfbZVbVbZZVZDaqhMqqsAZZhskzMMBBMabMyqtMZz0ewBVlphzjh607$o",
"O353h97y700hbbMbBMusApetsVzBBVkqhVVVZVVZBZZlslAABBzZZZVZZqpzbwsZSBlpslzMBBZMBBVaabxueqsZzlahpbt798*o",
"$863fp3u700lllbbBVafZpyufMBZVxkpbVVMNMVMZASbpfMZAAzVZZZBbztfMupbDbBsspfVBVABMZZ0ffqewebMllhpfl9798*o",
"O,03tl5q98qzllzhlbabVyquxzMVZbeyZVMMBbbVBMABzMBVVSVZZVZAkkpalftBAZBasetZBZZMBZVqhetetahllzlwlu8798*o",
"oo38tlw8q8hzzbzlhzwfMafpbBMMVkuuBABZMMBZVMZbsbZZAZVZAZZZMulyslsAbAMpsuwBVVBMBBMyptttftaxlbzpft8798&o",
"OO<0thtq9yzlbxlzlatllaklbVBBVpwfVVVZZZZZZVVbpfbZAZVZZZZZBakkauMVbZxpsaexVBBBBMzftttsteffbblhjp8788&o",
"o$77pz000allbllzzqszjpzMzBZBMeuuMAZBVZZZAAAZkhbBVZVVZAZSVpabz0VBMVfsfsulVBBBZzVyqtauqubffblhla8098*o",
"o$76uzp6wplzbllMfqsMzulMhZVVMeppMVZZZBBVVZZZxbASAZVVVVVAZkkhluMVVBasfsulVBMZMlZt0ta0qabblyhlkf8009;X",
"o#65wza70flbllbbbptVztbzlAVVkafhVVVVZbBVVVZZaaBZASSSSSAZMahswlzBZMysksuzVBMZzbBp0pfw7fbhflppzl8908-o",
"o>73qztq9thbllMhV0yBbyBlbZZMkpppVVVVBMZZZZZAbkVZVAMVASDDAzzttlzVVbqflkuzVBVZlBBh0fae8wMbhalral97q6$O",
"o553qlt0q0lllMblBqfMbpMhBZVVxpppBVVVbMBZZMMZzfBAZAVZVVZZbxMZDAZAZxeslsslBMAzbBBz9kutw0zzblpfys8707@O",
"o,73tft9q9hfxBlMhfabbpblBZVVzfpaBVblVMMZBMZZkpbZBMBZZZZBlapVABZZZxlfzssxBMMlBMVl0keptwlbzfafhly977;o",
"o>98tf0009pablBlkltMvslMxZVVxhpsBMzZVlBBMZAAzpzZVlBMZVBBbatZBMVVVhkpzasxMMbbBMZh0fwaeybZjtxbfbl9767,",
"O367aa9909thbbBfMsebzszBfZZBbhusVlAVBbBbVVVVxlMZVzbBVAVZzupZbVVZbflpzpfbMBVMBMAfwswfqabbBzaMzhl87672",
"o&73ph8900qblBbhVtuMzpBzfSZBMhplbBVAZMvVVVZBasMAABlVZZZAzqfbbZZZMflpzpfMzbZMMVZfapeyqubplZlhBll7776$",
"o$75waq090qskzzhbeaBltBhbAZBBhfpzZAAVbVZZZVVpslZZZZZZBZAbpfMZVZAbskslakhzbZBMBBhqqteeefflkMlhbf8781X",
"o#45wt9tq9qvblBfzwfBhqMlMZZBVlytSZSVVMZBAZVVpplZZVMAABZZkkhZDZVVZfpslffslZbMBMBf00teewalphhVhlt777=X",
"o@55tw0quqqlBbbblqhButbbbZZMMx0BZAVVVVVVSVZButlVVAABlZSZfhhZADAVVhaffhupzZxzBMBa00ztweblpzMbVht875#O",
"o=767880qeallMNblqlBqpMMbZZzVseMZZMAZMBDZVZMtqlVVBAZxVZZxkflZMASAkpppstfbzBlMMBa99MpwqpBlpbblMw873OO",
"o-77689999kVzkbMltbz0sBMbZBzAuuMSBZABVSSMVZbp0fZVVVbZABMfflbVMMZZbhsptytBBBlMMNf88llqqqbVfabbly78>OO",
"o#77798885fVVxlhfpBlwybMbZBMVfuZZBSBBASMBBZls0pZVZVbZZMZsppbVVbZVkalauyfMBBkMMMl89sbqwqsBBpfbbw79-OO",
"o-77700795yxBZMpthBlqeNMbVVlMshSMZZMVDVMVMZbfeyAVVBMZbMVlaubbMVVVzupyt0ZMbVVbMMb87pM0qqpzMbpfbt79-OO",
"o2677890q6wzlbVNllBl8yBMbVbzZazBVZBBAZVMVMVlzh0ZAVVVZzZbqhszZzVBBbpwy0qMZBMZBMMbw7tMw9qtzhMbpft79=OO",
"o>77780000pzllzvZMzhqaMMbVbBVtaVABMZAbVVMVVfsMyzAZAZVZZfwfybAMBBBbyep0ubBZMbZzlbp8qzh99wllkMMfe79&OO",
"o&77877qqwhlllxpbZVwwzbMbVBMB0ySZMVDVbMVMVBluazBVAASVSZyfsafAZBBBxuaewsbBBZbVZazf08hx090hzhhMb888>oO",
"o-7787780pbfhbsflzVsqhBMlBBBbwtMBBSVMBzVBBMsksaZZVZZVZVusapsBZZVVxus0ysVBbMVbZMhat9tBqq8pzahhzq877*o",
"o@4787698pbvau0lMzatufBzhZBBbyfzzAVMBVbbVVbusxuzVVVMVVkasatpbVBVZbpe0uuBZBMBBbZzaqq0Bf00whahhh8876$O",
"o$6788808waf07qzBf0qqfMzbZBBktpBBBBBBBVzBVbppssxMZxMZMspppwpzVMBBblqwupMNVZBBVMVf0t9fBq0tfplfh8873OO",
"+>87778w099997qbblqqqfbMVBVBhttMAhbBBBBMMZzuppulMZxVMxkfsptwhVZVBfuyhpkVbbVVVBBBM0e00lh0efaflf0873OO",
"O-37765wtwq0q9wzvhqqtubVMMVBleelBBlzBBBVMVlusppfBAhhBVMfpppehZVBVfq0sahZZBMzMVBbBl0t0qlyqhlfht8873OO",
"Oo&7qw09900qqqehbfqettBBhBMVfw0qbBBllBBZZVzpppzVZVafVSzuuphbhxBZVu0yutzMBVZfaBBbzBpqt0wff8ahlp7585#o",
"O.=wppft709qqwqbbhqtqtBhzVbVftu9tBBBllVbMMypylSBshplSAsyakkkuaADke0ayybzlBBuyvxbzzz9qq0e05ahbs5686%o",
"o*99htpf09qfzutzlhqqqpzhVbMZfptyekbBBllBMBtwubZbqpuBZBfskMbpuhxfauwutuMMzMzyphMzzzb0qqq07qalBe4877*X",
"o*50hjylqqqfzfqfbf0qqtfMMzBVftyttkzlMBxhMzpttMBBtufBMVzfbMMshstah9tttaxlMVyqyhbzzlzp7ww9yqpbM77877:X",
"OX;9fbbft00hM08lbfqqq0fbzbVVheattaBblMBMkfwppBBByyhxVAkflbByyuuhq8ytthbllBpqepfbzlzl70hlw8aBp78857,.",
"oo>8tzbby8ezz0qzlyqq09bzvxBVsqateuMMMMMBMw0tsBBVp0uBZZktMBbtuuut7qtttxlzltpuqfalllzhq7lb79fzt09338,.",
"o#56qplBk8tzhafhfp0q6tbzbbkVh0qftyMMMMMMBf00aBBBs0fVBVpfMbfutey90etttkxMzq0awahfzllhq9zl09hhle5378,.",
"X*75qppbMqybhfpazpt99pblBMtzMyqsyqhVMMMMbpfwpbMBfyuMBBkhBBuy9t0qptetwwweuewqypbpllbp0tlly9zzMq3877>X",
"@2770afalazlMytlzhhu0yzzZztyBaqyw0aBBMbBlaaflBbBh9qMMMfbZzy90t9zlzyee0090eqqwlbpflbq0qlllqhlZ76877-X",
"$568qahpyqVblaahlbfh9plBBzp7qeewtqwlMVMlptapbVBMawwbMzbVAfq0a9lVzMzwet00qqqqfbVltVa00qhlhpqsB08777=X",
"o#36qhhyu0lNztzzfazh0tbMlzsq99qweesfhbBsupwtbVBBpttzBBMVBa9u9uVzfbbtweeq0qqtlbBBaae00qhhfl9hby8777&o",
"o#579fzypqlfvppblhkh0qMllzs0wq9qeqfzhhbaeutebvMMaytzVZMVM0e00BMalMbtetqqqq0pzlbVBq0q00haMk9hlp8896&o",
"o$769aatuqlffeffbvhh8yvllbf08qtqqqyzhbjqweeelVbz0uelbZbVhwq9lMhaMbzwqppqww0fzblzZh5000ffBf7plf8896&o",
"o$669fatptbbl0tzhhlsqtkllzfqq99qqqqzhMzq0qewlbBze9qkbBbMlu0yfbabxbfqqqtptyqflbBlbBq000pfza9tph8996&o",
"o1750hfpytllsqyMbzla8qkzzzl0qq0990qtpptquueelzbafp0pblbMM0twhzllbbpqqqqqyayzbllMbyqy09tlhpt9tz7095$o",
"o-56qsypyubzy00hzMMf9qhzVzBy0q7700qq0qtqqqskMMbqefuazbxMh0tqlllbBlweyqqqqqpBblllbq9qu7wlpfq5pb4q83+O",
"o.-9phafqwlhq98pbhla99fxMfMvpqq860qqfyeuefbbbBVy8ypfbzzbpuqtsbbBlhqq9ttq009lMhllf0070ttlfl95fz508>OO",
"o$36phhheqbu9988qyfpteqbMhbpfwpp008fbhtt9abllhbtqetfbzzllqtwpbBlzhqq07thay8yzlhap00050shhl88pv788-oo",
"o,53payhf009qqq980halMepllMlhpue0wtblBh00tblbhaq07fMlllbf0y0tBzljhqq00tpfbtyhhla759ufqabff95qb007>oo",
"o;43paaafewq99qt99ltpNptzhMhlsuw09pzbVp90yBbllpeq7fzllhBqqq0tbzfpk9889lfqlutblhsyw9hbMhbbf075lq872oo",
"oO300psfht8qeq080tbp9lathhMhlwe0eqhbblpqtwaxMbwqq7pzllMl8qqqekzyfa990qfMaby6fbblhblpfbbpuw8w8pt47:oo",
"oO<q7qfalh8990qq09pMpflfhlbft8q00qlzhzf88qwhzzy0q9qhlzx90q0e0fpphf0q08tlqlz0qlzpazllfbbl8w90wrt77>oo",
"o:8877phfzy000079wwfwybs0eyt8777800yMzt0te88aff0800qfZy0q0wq9yhlhf0eyqylwew00wy0wlffhlbl0505q07773Oo",
"o$30658hlMaqwq9909999qhh966689988898ablq0909qpp97776tptq9qq95wblllq80q00q00q09888087phBp8486702765&X",
"o.&6656709880qq9778789uw899888887786qw857888889888677347888789wasy08788877788890878589985770085767>.",
"ooO-37773>=*&=>68887531<>;;;:>1:$$-:#O#&---&*;;=&%$#@@@#$&;35322<>>3732134431>-*&$$###@#$&=>,<1><<=.",
"ooo.o*:-o.XXoX.#--=&@oX.XXXXXX.XoOooOOOoooooooXooOOOO++OOoooOooXXXXo%OoXo++oXXXooooOOOOoooX...X.X..o"
};
