/* XPM */
static char *_db280fea0a244d9811ff309d59ad3c0vcpVKacRK1fkn1cU[] = {
/* columns rows colors chars-per-pixel */
"64 64 180 2 ",
"   c #00030E",
".  c #000413",
"X  c #000916",
"o  c #0E0B17",
"O  c #00061A",
"+  c #000B1A",
"@  c #080C19",
"#  c #0F1017",
"$  c #03111D",
"%  c #0E1C1F",
"&  c #09121B",
"*  c #000622",
"=  c #000E22",
"-  c #050E29",
";  c #021126",
":  c #02142B",
">  c #05182E",
",  c #0C1A2A",
"<  c #181A23",
"1  c #031631",
"2  c #051A35",
"3  c #091C37",
"4  c #061D39",
"5  c #091D3B",
"6  c #06203D",
"7  c #0A203E",
"8  c #1A2635",
"9  c #20252D",
"0  c #3A362E",
"q  c #3A3A33",
"w  c #362A26",
"e  c #563E2A",
"r  c #5E4B2B",
"t  c #454034",
"y  c #4D483D",
"u  c #514837",
"i  c #5E4D32",
"p  c #584D3C",
"a  c #63492D",
"s  c #644B31",
"d  c #6A563F",
"f  c #6C5B3C",
"g  c #615235",
"h  c #765739",
"j  c #735B3A",
"k  c #775C36",
"l  c #75633C",
"z  c #7E623B",
"x  c #0A1F40",
"c  c #072343",
"v  c #0B2241",
"b  c #0B2142",
"n  c #0A2142",
"m  c #0B2242",
"M  c #0B2342",
"N  c #0B2243",
"B  c #0B2343",
"V  c #0A2242",
"C  c #0A2040",
"Z  c #0C2041",
"A  c #0C2241",
"S  c #0C2142",
"D  c #0C2143",
"F  c #0C2042",
"G  c #0C2242",
"H  c #0C2243",
"J  c #0C2343",
"K  c #0C2342",
"L  c #0B2443",
"P  c #0C2443",
"I  c #0B2244",
"U  c #0B2344",
"Y  c #0B2345",
"T  c #0A2344",
"R  c #0B2346",
"E  c #092344",
"W  c #0C2244",
"Q  c #0C2344",
"!  c #0C2345",
"~  c #0C2245",
"^  c #0B2444",
"/  c #0B2445",
"(  c #0B2545",
")  c #0A2544",
"_  c #0B2546",
"`  c #0B2547",
"'  c #0B2646",
"]  c #0A2646",
"[  c #0C2444",
"{  c #0C2445",
"}  c #0C2545",
"|  c #0C2446",
" . c #0C2646",
".. c #0C2745",
"X. c #0B2546",
"o. c #0D2847",
"O. c #0B2648",
"+. c #0B2649",
"@. c #0C2748",
"#. c #0D274A",
"$. c #0C264A",
"%. c #0B2848",
"&. c #0B284A",
"*. c #0D284A",
"=. c #0D294D",
"-. c #10294F",
";. c #0D2B52",
":. c #0E2F59",
">. c #102D54",
",. c #102F59",
"<. c #0E315C",
"1. c #123253",
"2. c #10335E",
"3. c #0F3462",
"4. c #113563",
"5. c #173A60",
"6. c #103769",
"7. c #123A6D",
"8. c #133E73",
"9. c #2C4C6A",
"0. c #454941",
"q. c #4A4B44",
"w. c #786242",
"e. c #766343",
"r. c #87663F",
"t. c #9C723F",
"y. c #856B40",
"u. c #8E6D44",
"i. c #916F47",
"p. c #8D7343",
"a. c #8D7148",
"s. c #877A4F",
"d. c #977141",
"f. c #9B7544",
"g. c #957947",
"h. c #9D7B44",
"j. c #9E7C4C",
"k. c #A17746",
"l. c #A67E49",
"z. c #AA7E48",
"x. c #B27E44",
"c. c #B67F49",
"v. c #B87D4B",
"b. c #A4844B",
"n. c #AC834B",
"m. c #AA8347",
"M. c #B28147",
"N. c #BE8647",
"B. c #B4844B",
"V. c #BF824A",
"C. c #BD8B4B",
"Z. c #BB924B",
"A. c #A6905B",
"S. c #BF9653",
"D. c #C08B4C",
"F. c #C3914F",
"G. c #CC954E",
"H. c #C79653",
"J. c #CB9851",
"K. c #DF9A51",
"L. c #E49750",
"P. c #CDAD5D",
"I. c #D3A258",
"U. c #DCA859",
"Y. c #E4AC56",
"T. c #EDB15F",
"R. c #F3B752",
"E. c #FFC867",
"W. c #FDD268",
"Q. c #35678E",
"!. c #326C89",
"~. c #5FA5C4",
"^. c #66B2CF",
"/. c #65B4DB",
"(. c #78BAD9",
"). c #FFE882",
"_. c #FFF682",
"`. c #87C9DE",
"'. c #92E9F9",
"]. c #A2FFFF",
/* pixels */
"5 3 5 4 5 5 3 5 5 5 5 3 4 5 5 5 5 5 5 5 5 5 3 4 5 3 5 5 5 3 5 5 5 5 4 5 5 3 5 5 3 3 3 5 3 5 5 2 4 3 5 4 3 3 5 5 5 5 4 5 3 4 4 3 ",
"5 5 5 5 5 4 5 3 4 5 5 3 5 5 4 5 5 5 5 5 5 3 5 4 5 5 4 4 5 4 5 5 5 3 5 5 4 4 5 3 5 5 3 5 4 3 4 5 4 5 4 5 5 4 5 5 5 5 4 5 2 5 5 5 ",
"5 3 5 ^.5 5 5 5 5 5 3 5 5 5 3 5 5 5 5 4 5 5 4 3 5 5 5 5 5 5 3 5 3 5 5 5 5 4 5 3 3 3 5 5 5 4 4 3 3 3 3 5 5 5 5 5 5 5 5 5 5 3 5 2 ",
"5 5 5 4 5 5 5 5 5 5 5 5 1 5 5 7 5 5 5 5 5 5 5 '.3 5 5 3 5 5 5 4 5 5 5 5 5 3 5 5 5 5 5 5 5 5 5 5 5 5 5 5 5 5 5 2 5 3 5 5 5 5 7 3 ",
"5 5 5 5 5 3 5 5 5 5 5 5 ~.2 5 5 5 5 5 5 5 3 7 5 5 5 5 5 3 5 5 5 5 5 5 5 5 5 5 5 5 5 5 5 5 3 5 5 5 5 5 3 (.5 3 5 5 5 5 4 5 5 5 5 ",
"5 5 5 5 5 5 5 5 5 5 5 x 5 7 5 5 5 5 5 5 5 3 C 5 5 5 5 C 5 5 5 5 5 5 5 5 5 5 5 5 5 5 5 3 9.5 5 5 5 C 5 5 5 5 5 5 4 5 7 5 5 `.5 5 ",
"5 5 5 5 7 5 7 5 5 5 C 5 C 5 5 5 C 5 7 5 5 5 5 5 7 5 5 5 4 5 5 5 5 5 5 5 : 5 5 5 5 5 / Z 1.5 5 5 5 5 5 7 5 5 5 5 5 5 5 5 5 5 5 5 ",
"5 5 5 C 7 5 5 5 5 7 5 5 5 7 7 5 5 5 C 5 C 5 C 7 7 C 5 5 x 5 C 5 5 5 5 7 5 5 5 7 5 5 5 Z 5 5 x 7 5 7 5 7 7 5 5 5 5 5 7 7 5 5 5 5 ",
"7 5 5 5 C 5 5 C = 5 5 x 7 5 7 5 C 5 5 C 5 5 C 5 C 5 5 7 5 C C 5 7 C 7 Z C x x C 7 5 5 5 7 5 C 3 x 7 Z 7 Z 5 5 5 5 5 5 5 5 5 5 5 ",
"Z C C C C 5 C 5 Z x 5 x 5 C Z C C C 7 : 7 5 C C x x C 5 7 @.7 C C 5 5 7 C C C C C 5 C 7 C C C C x C C 5 C 7 x 5 C C 7 5 x 5 C C ",
"C C C 5 5 7 C C C C x T C C 5 W C C C = C C C C Z C C C 5 - | C 7 C C C C C C 5 7 Z C C C 7 C C C C T C 7 5 7 7 C 5 C C C C 5 5 ",
"Z Z C T Z C Z W C C C C Z W / x W C C + C C W C Z C W C C C C C C C C Z Z C Z C C C Z Z 5 C C C Z C C 5 Z C C C Q./.C 5 C Z 5 7 ",
"Z W Z Z C Z C W W C C | C W Z Z C C +.+ C T T C Z C W L | T Z | Z | C 7 C Z C Z C | T / C | P Z C | Z W T Z C x C C Z Z / T Z / ",
"W Z C Z !.C P +.+.C / W Z W C C 5 : : = 1 C Z C | / C Z C / Z C L / C Z Z Z L C Z | T | C Z Z | C / C | C Z C C Z C C W T W C W ",
"/ C C Z W C / | / / T C @./ / T W + + + + C C C Z C C / T Z %.T W T | T W T | / T | / P T Z / C Z W Z L W T W C Z | C Z C C C C ",
"+.T %.W L T / / W / | / T / C 4 + + + + + + T T / | @./ T T / / / T / Z | W W W | T / +.T T W C / T / C T C Z T / W / T / | / T ",
"T @.+./ / W / T P | | @.+.| + + + + + + + + +   C W | / &.| %.| | T W | / / T | | / T T @./ T | *.| @.| C T / W / %.W | T T / T ",
"+./ +./ @./ @.W / / | | / | + + + + + O + + +   / C / T +.*./ Z @.+./ / x @.+.*.T @.| / C / / @.5 +./ | | %.+.@.W | / +./ / / W ",
"@.| / %./ +.| | +.+.+.+./ / + + + O 1 . + 1 +   C @.| +.@.@.+.*./ / / / / / / / / *.*.@.@.*./ @.. / / *.@.+.+./ @.@.| @.@.| / C ",
"/ / @.@.@.+./ +.@./ / +./ / + + + + ; + + O +   +./ *./ @.@.%./ / @.+.T @./ | +./ | / +.@./ +.o.+ +.+.+.=.+.&.+.*.+.+.*./ 1.@./ ",
"@.*.*.@.@.@.+.=.*.*.%./ / *.+ + + 1 1 + + + + . *.@.=.*.@.&.+.+.+.=./ +.=.+.@.*.@.@.@.+.*.L =.+ + / +./ +.*.%./ @.+.+.*.*.=.+.+.",
"+.@.+.%.].@.@.@.@./ &.=.+.@.+ + + Y.x.+ +   +   =.%.=.*.=.*.&.*.+.;.@.+./ @.*.=.*.=.@.@.&.@.&.+ + +.+.@.%.=.%.+.@.%.=.@.&.=.+./ ",
"&.@.=.=.=.@.=.=.=.*.=.&.&.=.+ + + O O + +   + . / *.=.=.=.=.@.=.=.=.+.*.=.| =.=.=.5.=.*.=.@.+ + + + &.=.*.=.=.=.=.=.=.=.=.=.*.&.",
"=.&.=.@.=.=.=.=.=.=.=.&.;.=.+ + +   + O O : + . =.=.=.+.O =.=.=.=.@.=.=.=.=.=.@.=.=.=.=.=.=.+ + + + =.=.=.=.=.=.=.=.=.=.=.=.;.=.",
";.=.=.=.=.=.;.;.=.=.=.=.;.*.+ + + y.1 + + : + . &.=.=.=.=.=.=.=.=.=.-.=.=.*.=.=.=.;.;.;.=.: + + + + . =.=.+.=.=.;.;.;.=.=.=.=.=.",
"=.=.=.;.;.=.&.=.=.=.=.=.=.=.+ + + M.t.+ + p.+ . ;.=.=.=.=.;.=.=.;.=.=.=.;.=.=.=.=.=.;.=.;.; + ; = + + =.=.=.=.=.=.=.=.=.=.;.=.=.",
"=.=.=.=.=.;.=.;.;.;.;.;.=.=.+ + + + + + + + + . ;.;.;.;.=.;.=.=.=.=.;.;.=.;.=.;.;.;.=.;.;.= + ; : + 5 =.=.=.;.;.;.=.;.=.=.=.=.=.",
";.=.=.=.;.=.=.=.;.;.=.:.=.;.+ + + G.: + O J.+ . ;.;.;.=.;.;.;.;.;.=.;.;.;.;.;.=.;.;.;.;.;.= + h.: + x ;.;.;.;.=.&.; ; ; ; ; ; ; ",
";.;.;.=.2 2 2 2 2 2 ;.;.;.;.+ + + O + + + + + . ;.;.=.;.;.;.;.; ; ; ; ; ; ; 6.;.;.;.;.;.=.; + ; : + ;.;.;.;.;.;.=.; ; ; ; ; ; ; ",
";.;.;.;.2 2 2 2 2 2 ;.;.;.;.+ + + E.: + X W.+ . =.:.;.;.;.;.=.; ; ; ; ; ; ; 3.;.;.;.:.;.+ + + : b.+ + : ;.;.;.;.=.; ; 2 2 ; ; ; ",
":.<.<.;.2 2 2 5 2 4 ;.;.;.;.+ + + O + + + + + . =.:.;.;.;.;.;.; ; ; ; : ; ; 7.:.:.:.:.;.= + : : : + + : ;.:.;.:.;.; ; ; ; ; ; ; ",
":.;.;.;.2 2 5 5 7 4 4.6.6.<.+ + + 1 j O + 1 + . ;.;.<.;.,.;.>.; m.4 S.4 ; ; 6.;.;.;.;.;.= + ; : ; + + : :.<.;.;.=.; ; : 2 ; : ; ",
"<.;.<.;.2 2 + + + + + + + + + + + + O + + + + . ;.<.<.;.;.:.;.; ; ; ; : ; ; 7.;.;.;.:.<.= + ).; = 2 + : 1 2 <.;.;.; ; 2 : ; ; ; ",
"<.;.;.:.2 4 + + + + + + + + + + + + + O + : + . ;.;.<.;.2.;.:.; e.f.2 B.; ; 7.2.;.<.<.;.= + ; ; : : + : 2 2 <.;.;.; ; ; ; ; ; ; ",
";.:.<.<.2 2 + + V.s + 2 D.+ B.+ + + + + + + + . ,.<.<.:.<.<.;.; ; ; : : ; ; 7.:.<.:.<.:.; + , ; j.1 + : 2 2 <.<.;.; = 2 ; ; ; ; ",
"<.<.<.;.2 2 + + + + + + + + + + + 2 > + + 3 + . :.<.<.;.<.:.,.: 2 l.n.4 - ; 7.;.,.2.2 2 ; + , ; P.; + : 4 2 <.:.;.; ; ; ; ; ; ; ",
"<.2.<.<.2 2 + + + + + + X + + + + + + + + + + + 2 2 <.4.4.2.<.; : : : : : ; 6.<.2.<.4 2 = + s.1 : + + : 5 2 <.<.&.; ; 2 2 ; ; ; ",
"<.2.<.<.2 4 + + 2 % + 2 F.+ z + + > 7 + = > + + 2 2 2.<.:.2.2.: 4 : 1 Z.* : 8.<.<.<.4 2 ; + _.1 ; A.+ : 2 2 <.2.&.; ; 2 : ; ; ; ",
"2 2 <.<.2 2 + + + + + + + + + + + + + + + + + + 2 2 3.2.2.<.2.: 5 1 1 U.; ; 7.2.<.4.4 2 ; + : ; ; + + : 4 4 <.<.=.; : ; ; ; ; ; ",
"4 2 <.2.2 2 + + + O + X X + X + + 1 ; = + 2 = + 2 2 <.4.<.<.<.; : : : ; ; ; 3 2 4.<.4 2 : + 1 g.1 + + + + + + + + + + + + ; ; ; ",
"4 2 <.<.2 2 X + g i.+ F.6 + 2 + + + + + + + = ; ; ; . . 3.<.<.: h.f.z > ; ; 5 2 6.<.4 2 ; + = ; : ; + + + + + + + + + + + ; ; : ",
"4 2 / / 2 2 + + + + + + + + + + + : : = + ; : : : : : : : : : : = ; : ; ; ; 5 2 2 2 2 2 ; + : ; j.8 + + + + o + 1 + X + + ; ; ; ",
"2 2 L / 2 2 + + 2 w.+ N.x.+ i + + = + = = ; + + + + + + + + + + ; 4 j ; ; ; 5 3 4 2 2 2 : + 8 : = 2 + + + z D.+ 1 & r.+ + ; ; ; ",
"5 2 E +.2 2 + + 4 d + < M.+ s + + = = ; = ; + + + + + + + + + + + ; ; ; : : 5 2 4 4 4 2 ; + = ; ; $ + + + + + + + + + + + : : ; ",
"6 2 / &.2 2 + + + + + + + + + + + ; ; ; ; : O + 2 2 + t 2 y + + + > 2 2 : : 6 4 c 6 6 2 ; + k.1 : a.+ + + : # + : = w + + ; : ; ",
"4 2 / / 4 2 = + i 2 + 1 I.+ G.+ + ; = ; ; ; . + 2 2 + j 2 f + + + : : : : + + + + + 2 2 ; + : ; : + + + + 1 f.+ 1 $ h + + ; : : ",
"5 2 2 : ; 2 = + + + + + + + + + + ; ; ; ; : X + L.< + + d.d + + + : 2 1 : + + + + + 4 2 ; + : p 1 8 + + + + + + + + + + + ; : ; ",
"+ + + + + 2 = + + + + + + + + + + ; ; : ; : . + V.u.+ +   u + + + : : : : + + + + + 2 2 ; + ; ; = + + + + : z + K.@ e + + ; ; ; ",
"+ + + + + 2 ; + + 0 + : z.+ : + + : ; ; ; ; + + + + + + + + + + + : : : : + + + + + + + ; + : : : ; + + + : r.+ v.@ r + + ; ; ; ",
"+ : ; + + 2 ; + + + + + + + + + + ; ; ; ; : O + 2 2 + : m.4 + + + : : + + + + + + + + + + + + : = = + + + + + + + + + + + : : ; ",
"+ : ; + + : ; + : = + 2 + + : + + ; ; ; ; ; + + + + + + + + + + + : : + + + X + + + + + + + + = ; = + + + d.: + : + j + + + + + ",
"+ + + + + + + + : ; + 1 = + ; + + > ; : ; : X + U.2 + l j 4 + + + : : + + q.0.X : + : + + + + : : = + + + + + + X + + + + = + + ",
"+ : : + + + + + + + + + + + + + + : ; ; ; ; + + + X + + + + + + + : : + + + + + + + + + + + + + + + + + + + + X X + + + + + + + ",
"+ = : + + + + + ; ; + ; + + + + + ; + + ; : X + 2 q + 1 h.R.+ + + : : + + : 1 X p.+ : + = + + ; + ; + + + : F.+ f + = + + + + + ",
"+ + + + + + + + + + + + + + + + + + + + ; ; + + 2 q + 1 b.Y.+ + + : : + + + = + + + : + ; + + + + + + + + + + + + + + + + + + + ",
"+ + ; + ; + + + + = + + + + + + + + + + ; + + +   X + + + + + + + : : + + + + + + + X + + + + + + + + + + : : + 1 X + + + + + + ",
"+ + : + : + + + + = + + O n.+ X . + + + ; + ; + f.2 + : + 1 + + + > : + + y.+ X 1 + H.+ = + + + + + + + + : 1 + : + + + + + + + ",
"+ + + + + + + + + = + + a C.+ 1 l + + + : + + + + + + + + + + + + + + + + + + + + + + X + + + + + + + + + + + + + + + + + + + + ",
"+ + ; + + + + + + ; + + + + X + + + + + ; + + + ; ; + + : : + + + + + + + : 9 O : + : + + + + + + = + + + : : + : X + + + ; + + ",
"+ + = + + + + + + ; + X ; 1 + c.4 + + + : X + + + + + + + + + + + + + + + + + + + + + + + + + + + + + + + + + + + + + + + + + + ",
"+ + + + + + + + + ; + + + : + . + + + + ; + + + + ; + = + ; + + + + + + + = = + : + : + = + + + + + + + + + + + + + + + + = + + ",
"+ + + + + + + + + ; + + : k + T.: + + + + + + + + + + + + + + + + = + + + : + + 1 + : + ; + + + + ; + + + + + + + + + + + ; + + ",
"+ + + + + + + + + ; + + : i + n.1 + + + + + + + + + + + + + + + + + + + + + + + + + + + + + + + + + + + + + + + + + + + + + + + ",
"+ + + + + + + + + ; + + + + + + + + + + + + + + + + + + = + + + + + + + + : + + : + : + + + + + + + + + + + + + + + + + + + ; + "
};
