/* XPM */
static char *_4aed72ff31c433bf46416a984e85149RF7agZy9OLrM6ISC[] = {
/* columns rows colors chars-per-pixel */
"64 64 171 2 ",
"   c #E7B7BC",
".  c #E8B7BC",
"X  c #E7B8BC",
"o  c #E9B9BD",
"O  c #ECBDC1",
"+  c #F0BFC7",
"@  c #EDC1C3",
"#  c #F1C2C7",
"$  c #F2C7CB",
"%  c #F3C7CB",
"&  c #F1C6CA",
"*  c #F1C7CC",
"=  c #F1C5CA",
"-  c #F3C8C9",
";  c #F1C8CA",
":  c #F1C8CB",
">  c #F1C9CB",
",  c #F2C8CA",
"<  c #F3C8CA",
"1  c #F2C9CA",
"2  c #F2C8CB",
"3  c #F3C8CB",
"4  c #F2C9CB",
"5  c #F3C9CB",
"6  c #F1CACA",
"7  c #F2CACB",
"8  c #F2C8CC",
"9  c #F3C8CC",
"0  c #F2C9CC",
"q  c #F3C9CC",
"w  c #F3C8CD",
"e  c #F3C9CD",
"r  c #F0CACC",
"t  c #F2CACC",
"y  c #F3CACC",
"u  c #F2CBCC",
"i  c #F3CBCC",
"p  c #F2CACD",
"a  c #F3CACD",
"s  c #F3CBCD",
"d  c #F2CACE",
"f  c #F3CACE",
"g  c #F3CBCE",
"h  c #F4C8CC",
"j  c #F4CACE",
"k  c #F4CBCE",
"l  c #F3CCCD",
"z  c #F3CCCF",
"x  c #F5CCCC",
"c  c #F4CCCD",
"v  c #F4CDCE",
"b  c #F4CDCF",
"n  c #F4CFCE",
"m  c #F6CFCF",
"M  c #F2C9CC",
"N  c #F6D2CF",
"B  c #F5CFD1",
"V  c #F4CFD0",
"C  c #F5D1D1",
"Z  c #F6D1D0",
"A  c #F7D1D0",
"S  c #F5D3D1",
"D  c #F6D2D0",
"F  c #F7D2D0",
"G  c #F6D3D0",
"H  c #F7D3D0",
"J  c #F6D2D1",
"K  c #F7D2D1",
"L  c #F6D3D1",
"P  c #F7D3D1",
"I  c #F6D2D2",
"U  c #F7D2D2",
"Y  c #F6D3D2",
"T  c #F7D3D2",
"R  c #F7D2D3",
"E  c #F6D3D3",
"W  c #F7D3D3",
"Q  c #F6D4D0",
"!  c #F7D4D0",
"~  c #F6D4D1",
"^  c #F7D4D1",
"/  c #F6D5D1",
"(  c #F7D5D1",
")  c #F6D4D2",
"_  c #F7D4D2",
"`  c #F6D5D2",
"'  c #F7D5D2",
"]  c #F6D4D3",
"[  c #F7D4D3",
"{  c #F6D5D3",
"}  c #F7D5D3",
"|  c #F6D6D2",
" . c #F6D4D4",
".. c #F7D4D4",
"X. c #F7D5D4",
"o. c #F7D3D1",
"O. c #F8D2D1",
"+. c #F8D3D1",
"@. c #F9D3D1",
"#. c #F8D2D2",
"$. c #F8D3D2",
"%. c #F9D3D2",
"&. c #F8D3D3",
"*. c #F8D4D0",
"=. c #F8D4D1",
"-. c #F9D4D1",
";. c #F8D5D1",
":. c #F9D5D1",
">. c #F8D4D2",
",. c #F9D4D2",
"<. c #F8D5D2",
"1. c #F9D5D2",
"2. c #F8D4D3",
"3. c #F9D4D3",
"4. c #F8D5D3",
"5. c #F9D5D3",
"6. c #F8D6D2",
"7. c #F9D6D2",
"8. c #F8D6D3",
"9. c #F9D6D3",
"0. c #F8D4D4",
"q. c #F9D4D4",
"w. c #F8D5D4",
"e. c #F9D5D4",
"r. c #F9D6D4",
"t. c #F8D7D4",
"y. c #F8D6D5",
"u. c #F8D7D5",
"i. c #F9D7D5",
"p. c #F9D6D6",
"a. c #F8D7D6",
"s. c #F9D7D6",
"d. c #F9D7D7",
"f. c #F8D4D2",
"g. c #F7D8D7",
"h. c #F8D8D4",
"j. c #F8D8D5",
"k. c #F8D8D6",
"l. c #F9D8D6",
"z. c #F9D9D6",
"x. c #F8D8D7",
"c. c #F9D8D7",
"v. c #F8D9D7",
"b. c #F9D9D7",
"n. c #FAD8D6",
"m. c #FAD9D6",
"M. c #FAD8D7",
"N. c #FAD9D7",
"B. c #F9DAD7",
"V. c #FADAD7",
"C. c #F9D8D6",
"Z. c #F8D9D8",
"A. c #F9D9D8",
"S. c #FAD9D8",
"D. c #FADAD8",
"F. c #FBDAD8",
"G. c #FADBD8",
"H. c #FBDBD9",
"J. c #F9D9D8",
"K. c #FDE3DE",
"L. c #FEE4DE",
"P. c #FEE6E0",
"I. c #FEE8E2",
"U. c #FFE9E3",
"Y. c #FFEAE2",
"T. c #FFEBE2",
"R. c #FFEAE3",
"E. c #FFEBE4",
"W. c #FEEAE5",
"Q. c #FFEBE5",
"!. c #FEEAE3",
/* pixels */
"X . X X X X X X X X X X X X X X X X X X X X . X X .   X X   X X X X X X X   X         X   X X   X   X X . .   X X       . X     ",
"@ _ >._ +._ >.+._ _ _ _ F.z.z.z.a.>.>._ 8 X E E +.>.E _ >.E >.>.>.+.>._ _ E >.E E x . 8 _ E _ >._ >.E _ E _ >.>._ >._ >.5 B _ @ ",
"@ +.k _ _ >.>.>.>.>.+.+.F.z.z.F.>.>.>._ _ X E E E z.>._ z.F.a.>.+.>.+._ +._ E E E 5 X >.>._ E +.>.+.E >.>.>.>.>._ _ >.>._ +.k @ ",
"O >.+.E +.+._ >.>._ >._ >.>._ >._ _ 8 _ E X E +.+.+.E E >._ >.E >.>._ 8 8 +.>._ >._ X >.>.>.>.8 >.>.8 >.z >.+._ >._ >.>.>._ _ @ ",
"@ _ E E E >.I.+._ >.>.>.>.>._ z >._ +._ E X _ _ +.E 8 >.+.>.>.>._ >.>.>._ E _ _ >._ X >.>.E >.>.8 >._ +.+.>._ _ >.>.P._ >.>._ @ ",
"@ E _ >._ I.I.I.>.+.>.>._ x 8 x _ _ +.E % X _ _ E +._ a._ _ +.>.>.>._ _ >.+._ >.E E X +.>.>._ _ 8 8 8 z +.>.+.>._ >.>.+.>.>.E @ ",
"O 5 +.E _ E I._ >.>.>._ >._ E _ >.E _ E % X >.>.>.E _ >._  ._ >.>.>.>._ _ _ E E E 5 @ a._ >.8 E +.>. .>.>._ >.>._ >._ +._ E % @ ",
"o # % 8 5 >._ >.>.>.8 8 8 >._ E _ % 8 @ @ X 8 >._ _ _ >.+.>._ 8 8 5 % 5 5 % x 8 % @   k >._ >._ +.>.+._ >.+.+.E >.>._ >.8 @ = @ ",
"      X X     X   .   X X X X   X     X     X   X   X X   X X . X X X X O O @ @ X                   . X X   .   X       . X     ",
"X X o O X   X   . .       X .   X X X X X . X X X X X   X             X X X   X X . X X X X . X       X         X o @ O O .   X ",
"z.z.z.z.z._ >._ _ 8 X z >.>.a.z.F.z.F.z._ +._ _ >.E >.z.a.>.>.X X z._ >.a.a.>.E z.z.>.>.E _ >._ _ _ >.E 5   5 _ z.a.>._ F.z.z.a.",
">.>._ _ >.E +.+.8 8 o E >.>.>.E >._ E +.E _ _ E >.E >._ +._ _ X . E E >.+._ >.>.>.E >.>._ _ >._ +._ 8 +.E   E _ E +.E E _ +.E E ",
">.>.>.+._ >.E >.E 8 X +.E >._ % # E % % _ _ +._ >.E >._ >._ +.X @ >._ E _ >._ >._ >._ +._ a.>.F.>.>.>.+.8   _ E _ _ +.+._ E +._ ",
">.+._ >._ 8 >. .E E X >._ +.+.# # # % # _ E >.E >._ K.+.E _ >.X @ _ _ _ >.U._ E +.>._ >.E >.>.>.>._ >.+.5 X E E >.E 8 E E >.E a.",
"_ 8 E >.>.E _ >.E E   5 >._ _ E # # # E _ _ >._ +.E E _ _ >._ X @ _ >.>.U.U.I._ E >._ >.E >.z.F.F.F.>._ k   E _ +.+.E E _ E E _ ",
"E E >.>._ E _ E E 8 o 8 E _ E _ E % E E E +.E E _ E +.E E E E X @ E E _ >.I._ +.8 E _ _ 8 _ >._ _ _ _ E E X x _ _ +._ E E E E E ",
"8 8 8 8 5 8 8 8 5 @ X % 8 5 >._ E E _ _ >.+.E 5 E +.8 8 8 8 5 X X 8 +.+._ _ E +._ _ E _ >._ E >.>.>.>.8 X   5 E _ >.>.8 8 % 5 % ",
"X X X   X . X . O X X X X X   X     X . X X   X . . X   . X     X X X X X X   X   . X         X       X             X   X       ",
"X X X X     X . O         X         X . X X   . . . X X X X X X X X X       X     X X . . X                         .   . .     ",
"X 5 8 >.z.a.8 E >.E _ E E E _ E >.>.a.E 8 O 5 _ >._ >._ z.a.E E E +.E E _ E >._ E 5   8 a.E F.z.z.a.a.E E _ >.E >._ E >.E E % X ",
"@ a.z.z.z.z.E >._ _ _ E E z.a.+.z.z.z.+.>.O >._ >.+.>.>.+._ E E E E E _ _ E 8 _ >.E . E E E E +.+.E E E E _ +.>.+.>.+._ >.x E X ",
"@ >._ _ >._ _ E E E _ _ E +._ _ _ _ >.+.E @ >.+._ _ _ _ _ >.E _ E E E E E +.+._ >.8 X E E E E E _ E # E % % _ E E _ >.E _ +.E X ",
"@ >.>._ _ +._ +.E >.>._ _ E 8 >.E _ +.E E @ E >.E >.8 >.>._ E E k E E +.+.>.E E _ 8 X E >.+.+.E E # # # # # % _ +._ _ E _ _ _ O ",
"@ _ >.E 8 E _ E +.>.>._ >.8 +.>.>.>._ E 8 @ >.>.>.>.E E >.z E E E E +.E k 8 8 +.+.E O E E E N +.E E # # # # E E E E 8 _ E +.E O ",
"@ >.>._ _ +.a._ >.>.>.k >.>.>.>.+.>.+._ x @ >._ z 8 8 >.>._ >.>.>.E +._ _ _ E E _ +.O 8 >.N +.E +.E +.# # E +._ _ a.+.+._ +.>.@ ",
"O 8 >. .>.>.8 >.E >.>.>.>.>.>.>.>.>.E 8 8 O 8 _ >._ >._ _ +.>.E E +.E E _ _ E E _ 5 O 8 8 >.E E +.+.E E +.E E +._ >._ _ >.E 5 X ",
"O O O X X O X o O O X X X X X X X X X X X X X X X X X X X X X X         X X X X X X X X X   . . X O O X     . X . X @ @ @ X .   ",
"o o O X o X o X o X X X X X X X X X X X X X X X X X X X X X X . X       .   .     X   . X   . X X                   X . X . .   ",
"z.a.a.+._ z.F.z.a.8 o 8 x >.+.>.>.+.+.>.E _ +.E E E a.z.a.+.5 X   5 >.z.E z._ _ +.E _ E _ _ >._ _ >.E E %   E >._ z.F.z.z.E a.z.",
">.+.>.E _ E >.+.N 8 X E >._ _ >.+.>.>._ +._ _ _ E E >.+.>.E E X   E _ E +._ E +.E E E E E E E N E _ 8 E E   _ E >.+.E E _ _ _ _ ",
">.>._ E E E _ x 8 8 O E >._ _ E I.E E +.E E _ >._ >._ E E E _     5 N >.E E 8 _ _ E E E E k E E E E _ E +.. _ >.>.E E >.>.E >._ ",
" ._ >.8 5 k +.+._ E O _ E _ _ I.I.I.>._ E E >._ E 5 E E +.8 +.. X E _ _ E E E +.>.E E _ E E E E E E E E >.  E _ _ E k E >.E >.E ",
">.>.+.+.>.+.+.+.E E O >.+.x >.>.I.>.+._ E E _ _ +.E E +.>.E E . X +.E E _ E E _ _ E E >.F.a.>.E E +.E E E . _ _ >.8 _ E  ._ _ E ",
"_ E E E E >.E E % % o E >.>.>._ +.>._ >.E E +.E _ E E E >.E +.X X +.E E E E E >._ z.z._ >.E +.E E +.E E %   _ >.>.>.E E >.8 8 +.",
"5 >.>.>.>.>.8 % @ X X 8 8 a._ E E _ _ _ _ E _ 8 +.+.8 8 _ _ # X X 5 E +.E 5 E E _ E N E E E E E a._ 8 = O   % _ +._ E +.+.>.E +.",
"X X X X X X X X X X X X X X X X X X X X X X X X X X X X X X X X X X X X X X X X X X X X X X   X o X   X     X       . X       X ",
"X X X X X o o X X X X X X X X X X X X X X X X X o X X o O X o X X X X X X X . X X X X X . o X X X X X   X . X X X . .   X . .   ",
"X >.a.a.z.z.z.z.z.E +._ E +._ E +.+.E 5 5 O % E _ E +.>.+.>.z.F.F.a.E E E E +.E % O X 5 E E E E E N E N z.E a.>.E E E E _ +.% X ",
"O _ _ E E E E +.E E E >._ E +.E F E E E E o E E _ _ >.>.x >.>.+.>._ F +._ E E >.E 8 X _ >._ E E >.E >.E E E E E +.>._ +.z E E . ",
"O _ _ +._ 5 E >.E >.E E E +.+.+.+.+.+.E E X >.E >.a.>.>._ E _ +._ _ E >.E 5 +.>._ 5 X E _ +._ E I._ +.+.E E E _ E E E _ _ E E   ",
"O +.E E E E E +.E E z.z._ >._ >._ E +._ E X E >.>.>.k >._ _ _ >._ >.E +.8 5 8 _ +.>.O 5 +._ +.I.U.I._ _ _ E E +._ E E +._ E E X ",
"o E >.8 E E E +.E +.+._ _ _ >.>.h 8 5 E E O _ >.>.>.>.>._ >.>.>.E E 8 E +.5 +.E E E o % >.E E E U.>.E _ _ _ +.5 5 8 E E E E E X ",
"X 5 F E E E E >._ _ >.8 >.>._ _ E E N E % o E _ >.>._ _ _ _ >._ >.+.E _ E E +.+._ E X E E >.+.>.+._ _ E +.E N _ E E _ E +.E % . ",
"X 8 E >.E k E _ >.>.>._ +.E >._ _ E E 5 O X % _ +.>.>.E _ >.+.E +.E _ E +.E E E +.% X 5 _ _ >.+.+.>.>._ E _ +.>.E E E _ _ % % X ",
"X X   X   X X X X . X X X     X X X   X X X X . X X X X . X X     X X X X X X X X X X X X X X X         X X X   . @ @ @ @     . ",
"  X     X       X X       X     X       X   X X X X X X O @ @ . X     X X . X X X X .   X X X X X             X X X X   X       ",
"+.E N E E +.E E +.E X a.z.z.g.z.E a.z.a.E E a.E +.E E z.z.x %     % +. .>._ E +.E z.a.E +.E E E E E E % O   5 E z.z.E E N E E N ",
">.+.+.+.+.E E E E E X +.E E E E E E E E E E E E E E E E E _ E     N E >. . .a. .E E E E N E +.E E +.E E 5   x E E N N E N i N N ",
">._ E 8 E +.E E 5 % X N E N E % # E # # E E E E N N E E E >.N     E E E E E E N N N E N N E E E % E E N %   a.a.N N N 5 5 E F N ",
">.+.E E E E E E E N X E N E E # # + @ @ N +.E E E E N E 5 E N     E E E N E E E N E N N N E E % 5 E N N 5   N E N E E E E E N N ",
">._ E E E 5 % 5 E E O E N E E E @ # # E E E E 8 N E E E E N E     E 5 5 % E N E E E E N N N E E E N N N %   E N N E N N E E E N ",
"+.E _ E E E E N E E O % N E E E N % E N N E E +.E E E E N E 5 O X E E E N N E E E E E 5 8 E E E E N N N %   5 E N 5 5 N E E E E ",
">.>.>.>.E N +.E _ % X % 5 E E E E E E E E N E E +.N E E E 5 %     % E E +.N E E E E E E E E E N E E E % X   % N E E E E >.E E N ",
"X O   X               X X X X   X   X   . X X X X X X               . X X X     X                           X     @ @ @ O   X   ",
". .     X             . X       X     X X X X X X .                 X X X X X X                                 .         .     ",
"o % x a.a. .z.>.E +.N E _ a.>.E E E E E % X % E z.z.+.E _ E +.E E E E N  .a.z.z.E 5 X % +.E +._ +.E E _ z.a.N a._ E _ E E % %   ",
"X E E E E N E N N E E N E E N E E E 5 N E O x E +.>.E E N z.a.N E E E E E E N N +.N X E +.E +.N E E E E >.E E N N E E N E E E   ",
"O E E E E E E 5 N N N E E E N N E _ B E E O _ E E +.E z.z.z.a.+.E _ E E _ E E E E N X N E E N N 5 E E E E E N N N L.N E E E E . ",
"O +.E E E % % E N E N N E E +.E 5 5 E 5 8 O E +._ N E E +.+.E N E E 5 % 5 % E E E N . E E _ E E +.N 5 N E E E E Q.I.E.E E E E   ",
"o E E E E E E E E E 5 N E E E E E E E _ _ X E E N 5 E +.+.E E E N E E _ E E E E E E . x E E E E E E x E E E E E E I.>.E _ E N X ",
"X % E N E E E E E E N N N E 5 E E N E E E O E N E E E E E E N E E +.5 E E E E E E #   E E E E E N N E E E E N N N E E E E E O X ",
"X % % % E E E N E E N E E E E E E E E E % . % F E N E N E E E N E E N E E E E % # O X % E E E E N 5 % 8 E E E E E E E E N i = X ",
"  X X   X X X   X X . X X X X X X X X X X     X X X X . X X X X . . X X X X X X X   X . X X X   . X .   X X X X X X . X X       ",
"            .     X X . .       . X X X       . .   X     X   .     .   .   .   X X       .               .       X     X   X   "
};
