/* XPM */
static char *_68d7987e538467ce5546260528a5dd8BwXoTMOf6JzussXB[] = {
/* columns rows colors chars-per-pixel */
"64 64 37 1 ",
"  c #A8514F",
". c #E7B7BC",
"X c #E8B7BC",
"o c #E7B8BC",
"O c #E9B9BD",
"+ c #ECBDC1",
"@ c #F0BFC7",
"# c #EDC1C3",
"$ c #F1C2C7",
"% c #F3C8CB",
"& c #F3C9CB",
"* c #F2C8CC",
"= c #F3C8CC",
"- c #F3CBCC",
"; c #F4C8CC",
": c #F4CBCE",
"> c #F3CCCF",
", c #F5CCCC",
"< c #F6D2CF",
"1 c #F5CFD1",
"2 c #F7D2D0",
"3 c #F6D3D3",
"4 c #F7D4D2",
"5 c #F6D4D4",
"6 c #F8D3D1",
"7 c #F8D4D2",
"8 c #F8D7D6",
"9 c #F7D8D7",
"0 c #F9D9D6",
"q c #FBDAD8",
"w c #FDE3DE",
"e c #FEE4DE",
"r c #FEE6E0",
"t c #FEE8E2",
"y c #FFE9E3",
"u c #FFEBE4",
"i c #FFEBE5",
/* pixels */
"oXooooooooooooooooooooXooX.oo.ooooooo.o....o.oo.o.ooXX.oo...Xo..",
"#47464764444q0008774*o3367347377767443733,X*4347473434774747&14#",
"#6:447777766q00q77744o3330740q87676464333&o7743676377777447746:#",
"+76366477474774744*43o3666337473774**67474o7777*77*7>7647477744#",
"#43337t64777774>74643o4463*767774777434474o77377*746674477r4774#",
"#3474ttt76774,*,4463&o44364844677744764733o67744***>67674776773#",
"+&6343t4777474347343&o7773474547777444333&#847*367577477474643&#",
"O$&*&74777***7434&*##o*74447674**&&&&&,*&#.:7474676476637747*#$#",
"...oo..o.X.oooo.o..o..o.o.oo.ooXoooo++##o.........Xoo.X.o...Xo..",
"ooO+o.o.XX...oX.oooooXooooo.o......ooo.ooXooooXo...o....oO#++X.o",
"000004744*o>7780q0q046447370877oo0478873007734744473&.&40874q008",
"77447366**O37773743634437374644oX33764777377447464*63.3436334633",
"777647373*o6374  3  44647374746o#74347474746487q7776*.4344664364",
"76474*7533o7466     437374w6347o#4447t43674737777476&o3373*33738",
"4*37734733.&7443   344746334474o#477ttt43747370qqq74:.3466334334",
"337743433*O*34343 3336334363333o#3347t46*344*47444433o,446433333",
"****&***&#o&*&743344763&36****&oo*66443644347437777*o.&3477***&&",
"ooo.oXoX+ooooo.o..oXoo.oXXo.Xo..oooooo.o.Xo....o...o......o.o...",
"oooo..oX+....o....oXoo.XXXooooooooo...o..ooXXo............X.XX..",
"o&*708*3734333437783*+&474740833363343743&.*83q008833473743733&o",
"#80000374443308600067+7476776433333443*473X333366333346767647,3o",
"#74474433344364444763#7644444734333336647*o3333343$3&&433473463o",
"#7744646377443*734633#3737*77433:33667334*o376633$$$$$&46443444+",
"#473*34367747*677743*#7777337>333363:**663+333<633$$$$3333*4363+",
"#7744684777:77776764,#74>**774777364443346+*7<63636$$3644866467#",
"+*7577*737777777773**+*474744673363344334&+**73366336336474473&o",
"+++oo+oO++oooooooooooooooooooooo....ooooooooo.XXo++o..XoXo###oX.",
"OO+oOoOoOooooooooooooooooooooooXo...X.X..o.Xo.Xoo.........oXoXX.",
"088640q08*O*,76776673463338086&o.&703044634344744733&.3740q00380",
"76734376<*o37447677464443376733o.34364363333333<34*33.4376334444",
"7743334,**+37443t33633474743334..&<733*443333:3333436X4773377374",
"547*&:6643+4344ttt7433743&336*6Xo34433367334333333337.3443:37373",
"7766766633+76,77t76433446336733Xo63343344337q87336333X447*435443",
"43333733&&O37774674733634333736oo6333337400473633633&.4777337**6",
"&77777*&#oo**8433444434*66**44$oo&363&3343<3333384*$+.&464366736",
"oooooooooooooooooooooooooooooooooooooooooooooo.oOo.o..o...Xo...o",
"oooooOOoooooooooooooooooOooO+oOoooooooXoooooXOooooo.oXoooXX.oXX.",
"o788000003643643663&&+&34367670qq8333363&+o&33333<3<0387333346&o",
"+44333363337436333333O334477,776743643373*o47433737333336746>33X",
"+4464&373733366666633o737877434644373&674&o34643t46633343334433.",
"+63333363300474743643o3777:744474736*&*467+&646ttt4443364336433o",
"O37*333636644477:*&33+477777477733*36&6333O&7333t734446&&*33333o",
"o&333337447*774433<3&O34774444747634336643o33767644363<4334363&X",
"o*373:3477746374433&+o*467734763634363336&o&44766774346733344&&o",
"oo.o.ooooXooo..ooo.ooooXooooXoo..ooooooooooooooo....ooo.X####..X",
".o..o...oo...o..o...o.oooooo+##Xo..ooXooooX.ooooo......oooo.o...",
"63<3363363o800903808338363300,&..&65743630836333333&+.&30033<33<",
"7666633333o63333333333333333343..<3755853333<3633633&.,33<<3<*<<",
"743*3633&&o<3<3&$3$$3333<<3337<..333333<<<3<<333&33<&.88<<<&&33<",
"763333333<o3<33$$@##<63333<3&3<..333<333<3<<<33&&3<<&.<3<33333<<",
"74333&&&33+3<333#$$3333*<3333<3..3&&&3<3333<<<333<<<&.3<<3<<333<",
"6343333<33+&<333<$3<<3363333<3&+o333<<33333&*3333<<<&.&3<&&<3333",
"77773<634&o&&33333333<336<333&&..&336<333333333<333&o.&<3333733<",
"o+.o.......oooo.o.o.Xoooooo.......Xooo..o.............o..###+.o.",
"XX..o......Xo...o..ooooooX........oooooo................X....X..",
"O&,8850736<348733333&o&300634363333<58003&o&6364633408<843433&&.",
"o3333<3<<33<33<333&<3+,36733<08<333333<<6<o3636<3333733<<33<333.",
"+333333&<<<333<<34133+4336300086343343333<o<33<<&33333<<<e<3333X",
"+6333&&3<3<<3363&&3&*+364<33663<33&&&&333<X334336<&<3333utu3333.",
"O333333333&<333333344o33<&366333<334333333X,333333,333333t7343<o",
"o&3<333333<<<3&33<333+3<333333<336&333333$.33333<<3333<<<33333+o",
"o&&&333<33<333333333&X&33<3<333<33<3333&$+o&3333<&&*33333333<*$o",
".oo.ooo.ooXoooooooooo..ooooXooooXXooooooo.oXooo.XoX.ooooooXoo...",
"......X..ooXX...Xooo...XX.o..o.X..X.X.X.oo...X.......X...o..o.o."
};
