/* XPM */
static char *_8748748953147bbbcaa94a05aff768cjnQlS5UkoW9z38cx[] = {
/* columns rows colors chars-per-pixel */
"64 64 37 1 ",
"  c #E7B7BC",
". c #E8B7BC",
"X c #E7B8BC",
"o c #E9B9BD",
"O c #ECBDC1",
"+ c #F0BFC7",
"@ c #EDC1C3",
"# c #F1C2C7",
"$ c #F1C6CA",
"% c #F3C7CB",
"& c #F3C9CB",
"* c #F2C8CC",
"= c #F3CBCC",
"- c #F4C8CC",
"; c #F4CBCE",
": c #F3CCCF",
"> c #F5CCCC",
", c #F6D2CF",
"< c #F5CFD1",
"1 c #F7D2D0",
"2 c #F6D3D3",
"3 c #F7D4D2",
"4 c #F6D4D4",
"5 c #F8D3D1",
"6 c #F8D4D2",
"7 c #F8D7D6",
"8 c #F7D8D7",
"9 c #F9D9D6",
"0 c #FBDAD8",
"q c #FDE3DE",
"w c #FEE4DE",
"e c #FEE6E0",
"r c #FEE8E2",
"t c #FFE9E3",
"y c #FFEBE4",
"u c #FFEBE5",
"i c white",
/* pixels */
"X.XXXXXXXXXXXXXXXXXXXX.XX. XX XXXXXXX X    X XX X XX.. XX   .X  ",
"@3635365333309997663*X2256236266656332622>.*3236362323663636&<3@",
"@5;336666655099066633X2229639076565353222&X6632565266666336635;@",
"O65255366363663633*32X2555226362663**56363X6666*66*6:6536366633@",
"@32226r53666663:63532X3352*656663666323363X66266*635563366e3663@",
"@2363rrr65663>*>3352%X33253733566633653622X56633***:56563665662@",
"O&5232r3666363236232%X6662363436666333222&@736*256466366363532%@",
"o#%*&63666***6323%*@@X*63336563**&%&&%>*%@ ;6363565365526636*@%@",
"   XX  X . XXXX X  X  X X XX XX.XXXXOO@@X         .XX . X   .X  ",
"XXoOX X ..   X. XXXXX.XXXXX X      XXX XX.XXXX.X   X    Xo@OO. X",
"999993633*X:6679090935336269766XX9367762996623633362& &397630997",
"66336255**o26662632523326263533X.22653666266336353*52 2325223522",
"666536262*X5263%#2%%33536263635X@6323636363537606665* 3233553253",
"65363*6422X6355###%#326263q5236X@3336r32563626666365&X2262*22627",
"3*26623622 &6332###233635223363X@366rrr3263626900063; 2355223223",
"226632322*o*23232%2225223252222X@2236r35*233*36333322X>335322222",
"****&***&@X%*&632233652&25****&XX*55332533236326666*X &2366**%&%",
"XXX X.X.OXXXXX X  X.XX X..X .X  XXXXXX X .X    X   X      X X   ",
"XXXX  X.O    X    X.XX ...XXXXXXXXX   X  XX..X            . ..  ",
"X&*697*2623222326672*O&363639722252232632& *720997722362632622%X",
"@79999263332297599956O6365665322222332*362.222255222235656536>2X",
"@63363322233253333652@6533333623222225536*X2222232i2ii322362352X",
"@6633535266332*623522@2626*66322;22556223*X265522iiiiii35332333O",
"@362*23256636*566632*@6666226:222252;**552O222,522iiii2222*3252O",
"@6633573666;66665653>@63:**663666253332235O*6,52525ii2533755356@",
"O*6466*626666666662**O*363633562252233223&O**62255225225363362&X",
"OOOXXOXoOOXXXXXXXXXXXXXXXXXXXXXX    XXXXXXXXX ..XOOX  .X.X@@@X. ",
"ooOXoXoXoXXXXXXXXXXXXXXXXXXXXXX.X   . .  X .X .XX         X.X.. ",
"977539097*o*>65665562352227975&X &692933523233633622% 2639099279",
"65623265,*X26336566353332265622X 23253252222222,23*22 3265223333",
"6632223>**O26332r22522363632223  &,622*332222;2222325.3662266263",
"436*&;5532O3233rrr6322632&225*5.X23322256223222222226 2332;26262",
"6655655522O65>66r65322335225622.X52232233226076225222.336*324332",
"32222622%%o26663563622523222625XX5222226399362522522% 3666226**5",
"&66666*%@XX**7322333323*55**33#XX&252&2232,2222273*%O %353255625",
"XXXXXXXXXXXXXXXXXXXXXXXXXXXXXXXXXXXXXXXXXXXXXX XoX X  X   .X   X",
"XXXXXooXXXXXXXXXXXXXXXXXoXXoOXoXXXXXXX.XXXXX.oXXXXX X.XXX.. X.. ",
"X677999992532532552&&O%23256569007222252%OX&22222,2,9276222235%X",
"O33222252226325222222o223366>665632532262*X36322626222225635:22.",
"O3353&262622255555522X626766323533262&563&X23532r35522232223322 ",
"O52222252299363632532X2666;633363625*&*356O&535rrr3332253225322X",
"o26*222525533366;*&22O366666366622*25&5222o%6222r623335&&*22222X",
"X&222226336*663322,2%o23663333636523225532X22656533252,3223252%.",
"X*262;2366635263322&OX%356623652523252225%X&33655663235622233%%X",
"XX X XXXX.XXX  XXX XXXX.XXXX.XX  XXXXXXXXXXXXXXX    XXX .@@@@  .",
" X  X   XX   X  X   X XXXXXXO@@.X  XX.XXXX. XXXXX      XXXX X   ",
"52,2252252X799892797227252299>%  %54632529725222222%O &29922,22,",
"6555522222X52222222222222222232  ,2644742222,2522522& >22,,2,*,,",
"632*2522&%X,2,2%#2##2222,,2226,  222222,,,2,,222%22,% 77,,,&&22,",
"652222222,X2,22##+@@,52222,2&2,  222,222,2,,,22%&2,,& ,2,22222,,",
"63222&%&22O2,222@##2222*,2222,2  2&&%2,2222,,,222,,,% 2,,2,,222,",
"5232222,22O%,222,%2,,2252222,2&OX222,,22222&*2222,,,% &2,&&,2222",
"66662,523%X%&22222222,225,222&%  %225,222222222,222%X %,2222622,",
"XO X       XXXX X X .XXXXXX       .XXX  X             X  @@@O X ",
"..  X      .X   X  XXXXXX.        XXXXXX                .    .  ",
"o%>7749625,237622222%X%299523252222,47992&X%5253522397,732322%% ",
"X2222,2,,22,22,222&,2O>25622,97,222222,,5,X2525,2222622,,22,222 ",
"O222222&,,,222,,23<22O3225299975232232222,X,22,,&22222,,,w,2222.",
"O5222%%2,2,,2252&&2&*O253,22552,22&%&%222,.223225,&,2222yry2222 ",
"o222222222&,222222233X22,&255222,223222222.>222222>222222r6232,X",
"X%2,222222,,,2&22,222O2,222222,225&222222# 22222,,2222,,,22222OX",
"X%%%222,22,222222222%.%22,2,222,22,2222%#OX%2222,&%*22222222,*%X",
" XX XXX XX.XXXXXXXXXX  XXXX.XXXX..XXXXXXX X.XXX .X. XXXXXX.XX   ",
"      .  XX..   .XXX   .. X  X .  . . . XX   .       .   X  X X "
};
