/* XPM */
static char *bdf12a5f396e4513c12f6b284dc7f122PZX4Wx8g1Uk4EIkq[] = {
/* columns rows colors chars-per-pixel */
"64 64 35 1 ",
"  c #E7B7BC",
". c #E8B7BC",
"X c #E7B8BC",
"o c #E9B9BD",
"O c #9EBEDB",
"+ c #ECBDC1",
"@ c #EDC1C3",
"# c #F1C3C7",
"$ c #F3C7CB",
"% c #F3C9CB",
"& c #F2C8CC",
"* c #F3CBCC",
"= c #F4C8CC",
"- c #F4CBCE",
"; c #F3CCCF",
": c #F5CCCC",
"> c #F6D2CF",
", c #F5CFD1",
"< c #F7D2D0",
"1 c #F6D3D3",
"2 c #F7D4D2",
"3 c #F6D4D4",
"4 c #F8D3D1",
"5 c #F8D4D2",
"6 c #F8D7D6",
"7 c #F7D8D7",
"8 c #F9D9D6",
"9 c #FBDAD8",
"0 c #FDE3DE",
"q c #FEE4DE",
"w c #FEE6E0",
"e c #FEE8E2",
"r c #FFE9E3",
"t c #FFEBE4",
"y c #FFEBE5",
/* pixels */
"X.XXXX.XXXXXXXXXXXXXXX.XX. XX XXXXXXX X    X XX X XX.. XX   .X  ",
"@2524254222298886552&X1145125155545221511:.&2125251212552525%,2@",
"@4-225555544988955522X1118528965454242111%X5521454155555225524-@",
"+54144255252552522&21X1444115251552&&45252X5555&55&5;5425255522@",
"@21115e42555552;52421X2241&545552555212252X55155&524452255w2552@",
"@1252eee54552:&:2241$X22142622455522542511.45522&&&;45452554551@",
"+%4121e2555252125121$X5551252325555222111%@625&145355255252421$@",
"o#$&%52555&&&5212$&@@X&52225452&&%$%%$:&$@ -5252454254415525&@#@",
"   XX  X . XXXX X  X  X X XX XX.XXXX++@@X         .X. . X   .X  ",
"XXo+X X ..   .. XXXXX.XXX.X X      XXX XX.XXXX.X   X    Xo@++. X",
"888882522&X;5568989824225158655XX8256651885512522251% %286529886",
"55225144&&o15551521412215152422X.11542555155225242&41 1214112411",
"555425151&X4152$#1$$22425152524X@5212525252426595554& 2122442142",
"54252&5311X5244###$#21515204125X@2225e21452515555254%X1151&11516",
"2&15512511 %5221###122524112252X@255eee2152515899952- 1244112112",
"115521211&o&12121$1114112141111X@1125e24&122&25222211X:224211111",
"&&&&%&&&%@X$&%521112541%14&&&&%XX&44221422125215555&X %1255&&$%$",
"XXX X.X.+XXXXX X  X.XX X..X .X  .XXXXX X .X    X   X      X X   ",
"XXXX  X.+    X    X.XX ...XXXXXXXXX   X  XX..X            . ..  ",
"X%&586&1512111215561&+%252528611141121521% &619886611251521511$X",
"@68888152221186488845+5254554211111221&251.111144111124545425:1X",
"@52252211122142222541@5422222512111114425&X1111121#1$$211251241X",
"@5522424155221&512411@1515&55211-11445112&X154411#####$24221222+",
"@251&12145525&455521&@5555115;111141-&&441+111>411####1111&2141+",
"@5522462555-55554542:@52;&&552555142221124+&5>41414##1422644245@",
"+&5355&515555555551&&+&252522451141122112%+&&51144114114252251%X",
"+++XX+Xo++XXXXXXXXXXXXXXXXXXXXXX    XXXXXXXXX ..X++X  .X..@@@X. ",
"oo+XoXoXoXXXXXXXXXXXXXXXXXXXXXX.X   . .  X .X ..X         ..X.. ",
"866428986&o&:54554451241116864%. %581822412122522511$ 1528988168",
"54512154>&X15225455242221154511X 12142141111111>12&11 2154112222",
"5521112:&&+15221e11411252521112  %>511&221111-1111214.2551155152",
"325&%-4421+2122eee5211521%114&4.X12211145112111111115 1221-15151",
"5544544411+54:55e54211224114511.X41121122115965114111.225&213221",
"21111511$$o15552452511412111514XX4111115288251411411$ 2555115&&4",
"%55555&$@XX&&6211222212&44&&22#XX%141%1121>1111162&#+ $242144514",
"XXXXXXXXXXXXXXXXXXXXXXXXXXXXXXXXXXXXXXXXX.XXXX XoX X  X   .X   X",
"XXXXXooXXXXXXXXXXXXXXXXXoXXo+XoXXXXXXX.XXX.X.oXXX.. X.XXX.. X.. ",
"X566888881421421441%%+$12145458996111141$+X%11111>1>8165111124$X",
"+22111141115214111111o112255:554521421151&X25211515111114524;11.",
"+2242%151511144444411X515655212422151%452%X12421e24411121112211 ",
"+41111141188252521421X1555-522252514&%&245+%424eee2221142114211X",
"o15&111414422255-&%11+255555255511&14%4111o$5111e512224%%&11111X",
"X%111115225&552211>1$o12552222525412114421X11545422141>2112141$.",
"X&151-1255524152211%+X$245512541412141111$X%22544552124511122$$X",
"XX X .XXX..XX  XXX XXXX.XXXX.XX  .XXXXXXXXXXXXXX    XXX .@@@@  .",
" X  X   XX   X  X   X XXXXXX+@@.X  XX.XXXX. XXXXX      X.X. X   ",
"41>1141141X688781686116141188:$  $43521418614111111$+ %18811>11>",
"5444411111X41111111111111111121  >1533631111>1411411% :11>>11&>>",
"521&1411%$X>1>1OO1OO1111>>1115>  111111>>>1>>111$11>$ 66>>>%%11>",
"541111111>X1>11OOOOO>41111>1%1>  1111111>1>>>11$%1>>% >1>11111>>",
"52111%$%11+1>111OOO1111&>1111>1  1%%$1>1111>>>111>>>$ 1>>1>>111>",
"4121111>11+$>111>O1>>1141111>1%+X111>>11111%&1111>>>$ %11%%>>111",
"55551>412$X$%11111111>114>111%$  $114>111111111>111$X $>1111511>",
"X+ X       XXX. X X .XX.XXX       .XX.  X             X  @@@+ X ",
"..  X      .X   X  XXX.XX.        XXXXXX                .    .  ",
"o$:6638514>126511111$X$188412141111>36881%X$4142411286>621211$$ ",
"X1111>1>>11>11>111%>1+:14511>86>111111>>4>X1414>1111511>>11>111 ",
"+111111%>>>111>>12,11+2114188864121121111>X>11>>%11111>>>q>1111.",
"+4111$$1>1>>1141%%1%&+142>11441>11%$%$111>.112114>%>1111tet1111 ",
"o111111111%>111111122X11>%144111>112111111.:111111:111111e5121>X",
"X$1>111111>>>1%11>111+1>111111>114%111111# 11111>>1111>>>11111+.",
"X$$$111>11>111111111$.$11>1>111>11>1111$#+X$1111>%$&11111111>&#X",
" XX XXX XX.XXXXXXXXXX  X.XX.XX....X.XXXXX X.XXX .X. XXXXXX.X.   ",
"      .  XX..   ..XX   .. X  X .  . . . XX   .       .   X  X X "
};
